<svg xmlns="http://www.w3.org/2000/svg" width="165" height="225" viewBox="0 0 165 225">
  <path d="m165 2.04h-165l31.41 45.71h20.11l0.45-2.47-15.81-27.27h91.27l-126.3 205 15.97-0.1 106 0.1c18.75-2.99 40.18-18.95 40.78-40.09 0.8-26.27-26.44-38.81-46.39-48.13l-22.85-11.1-10.86 16.46 19.44 9.26c12.77 6.66 36.29 16.95 36.65 33.51 0.26 10.99-11.38 21.91-36.16 22l-68.58-0.08 129.9-202.8z" fill="currentColor"/>
  <path d="m40.28 53.4c-18.2 0-39.84 14.44-39.57 34.32 0.24 18.57 19.61 32.97 49.31 44.42l10.33-18.29c-13.47-3.04-37.13-13.08-37.05-26.63 0.07-8.98 10.66-13.4 23.28-13.89l12.49-0.17c13.79-0.4 22.19-7.55 30.92-19.89l-49.71 0.13z" fill="currentColor"/>
</svg>
