<svg width="656" height="221" viewBox="0 0 656 221" fill="none" xmlns="http://www.w3.org/2000/svg">
<path d="M625.875 132.875V87.4688H630.812L649.656 124.531L648.594 124.812V87.4688H653.812V132.875H648.812L629.875 96.1562L631.094 95.9688V132.875H625.875Z" fill="currentColor"/>
<path d="M578.119 132.906L591.744 87.4688H597.181L610.806 132.906H604.994L594.462 94.4375L583.931 132.906H578.119ZM585.119 122.406V117.406H604.306V122.406H585.119Z" fill="currentColor"/>
<path d="M563.269 87.4688V132.906H557.925V87.4688H563.269Z" fill="currentColor"/>
<path d="M515.419 113.688V108.656H527.356C529.377 108.656 530.971 108.042 532.138 106.812C533.325 105.583 533.919 103.917 533.919 101.812V99.4688C533.919 97.3021 533.325 95.5938 532.138 94.3438C530.971 93.0729 529.377 92.4375 527.356 92.4375H515.419V87.4375H527.044C529.565 87.4375 531.742 87.9167 533.575 88.875C535.429 89.8125 536.846 91.1562 537.825 92.9062C538.825 94.6562 539.325 96.7396 539.325 99.1562V101.812C539.325 104.25 538.825 106.354 537.825 108.125C536.825 109.896 535.409 111.271 533.575 112.25C531.742 113.208 529.565 113.688 527.044 113.688H515.419ZM512.638 132.906V87.4375H517.981V132.906H512.638ZM534.763 132.906L526.45 112.281L531.481 110.844L540.919 132.906H534.763Z" fill="currentColor"/>
<path d="M464.881 132.906L478.506 87.4688H483.944L497.569 132.906H491.756L481.225 94.4375L470.694 132.906H464.881ZM471.881 122.406V117.406H491.069V122.406H471.881Z" fill="currentColor"/>
<path d="M429.344 132.906V127.875H439.312C441.75 127.875 443.604 127.25 444.875 126C446.146 124.75 446.781 122.938 446.781 120.562V99.7812C446.781 97.4271 446.146 95.625 444.875 94.375C443.604 93.1042 441.75 92.4688 439.312 92.4688H429.344V87.4688H439.125C443.354 87.4688 446.583 88.5521 448.812 90.7188C451.042 92.8646 452.156 95.9688 452.156 100.031V120.344C452.156 123.052 451.656 125.344 450.656 127.219C449.656 129.073 448.177 130.49 446.219 131.469C444.281 132.427 441.906 132.906 439.094 132.906H429.344ZM425.625 132.906V87.4688H430.969V132.906H425.625Z" fill="currentColor"/>
<path d="M379.337 132.875V87.4688H384.275L403.119 124.531L402.056 124.812V87.4688H407.275V132.875H402.275L383.337 96.1562L384.556 95.9688V132.875H379.337Z" fill="currentColor"/>
<path d="M348.894 133.375C344.602 133.375 341.342 132.208 339.113 129.875C336.883 127.542 335.769 124.135 335.769 119.656V87.4688H341.113V119.875C341.113 122.583 341.769 124.646 343.081 126.062C344.415 127.458 346.352 128.156 348.894 128.156C351.477 128.156 353.435 127.458 354.769 126.062C356.102 124.646 356.769 122.583 356.769 119.875V87.4688H362.081V119.656C362.081 124.135 360.956 127.542 358.706 129.875C356.477 132.208 353.206 133.375 348.894 133.375Z" fill="currentColor"/>
<path d="M307.419 133.375C304.71 133.375 302.367 132.802 300.387 131.656C298.429 130.49 296.908 128.844 295.825 126.719C294.762 124.573 294.231 122.031 294.231 119.094V101.312C294.231 98.3542 294.762 95.8125 295.825 93.6875C296.908 91.5417 298.429 89.8958 300.387 88.75C302.367 87.5833 304.71 87 307.419 87C309.981 87 312.2 87.5208 314.075 88.5625C315.971 89.6042 317.471 91.125 318.575 93.125C319.679 95.1042 320.325 97.5 320.512 100.312H315.137C314.971 98.5833 314.544 97.1146 313.856 95.9062C313.169 94.6771 312.273 93.7396 311.169 93.0938C310.085 92.4479 308.835 92.125 307.419 92.125C305.023 92.125 303.117 92.9479 301.7 94.5938C300.304 96.2396 299.606 98.4792 299.606 101.312V119.094C299.606 121.927 300.304 124.167 301.7 125.812C303.117 127.438 305.023 128.25 307.419 128.25C309.523 128.25 311.273 127.552 312.669 126.156C314.065 124.74 314.887 122.708 315.137 120.062H320.512C320.325 122.875 319.679 125.281 318.575 127.281C317.471 129.26 315.971 130.771 314.075 131.812C312.2 132.854 309.981 133.375 307.419 133.375Z" fill="currentColor"/>
<path d="M253.85 132.906V87.4688H259.194V132.906H253.85ZM256.944 132.906V127.875H278.194V132.906H256.944ZM256.944 112.844V107.844H275.694V112.844H256.944ZM256.944 92.4688V87.4688H278.194V92.4688H256.944Z" fill="currentColor"/>
<path d="M223.594 133.375C221.219 133.375 219.094 133.042 217.219 132.375C215.344 131.688 213.771 130.646 212.5 129.25C211.25 127.833 210.354 126.062 209.812 123.938L214.875 121.875C215.5 124.083 216.573 125.719 218.094 126.781C219.635 127.844 221.469 128.375 223.594 128.375C226.323 128.375 228.417 127.781 229.875 126.594C231.354 125.406 232.094 123.708 232.094 121.5V119.812C232.094 118.188 231.677 116.906 230.844 115.969C230.031 115.031 228.958 114.281 227.625 113.719C226.312 113.156 224.875 112.646 223.312 112.188C221.875 111.771 220.417 111.302 218.938 110.781C217.479 110.26 216.146 109.583 214.938 108.75C213.729 107.917 212.75 106.812 212 105.438C211.271 104.062 210.906 102.292 210.906 100.125V98.9062C210.906 95.0521 212.073 92.1042 214.406 90.0625C216.76 88.0208 220.115 87 224.469 87C227.76 87 230.427 87.75 232.469 89.25C234.531 90.75 235.969 93.0208 236.781 96.0625L231.844 98.125C231.219 96.0625 230.292 94.5312 229.062 93.5312C227.833 92.5104 226.302 92 224.469 92C221.823 92 219.781 92.5833 218.344 93.75C216.906 94.9167 216.188 96.5938 216.188 98.7812V100.062C216.188 101.688 216.646 102.969 217.562 103.906C218.479 104.844 219.667 105.583 221.125 106.125C222.604 106.667 224.167 107.188 225.812 107.688C227.208 108.104 228.583 108.583 229.938 109.125C231.312 109.646 232.562 110.333 233.688 111.188C234.812 112.021 235.708 113.125 236.375 114.5C237.042 115.854 237.375 117.573 237.375 119.656V121.438C237.375 125.292 236.188 128.25 233.812 130.312C231.438 132.354 228.031 133.375 223.594 133.375Z" fill="currentColor"/>
<path d="M0 0L31.41 45.71H51.52L51.97 43.24L36.16 15.97H127.43L1.13 220.97L17.1 220.87L123.1 220.97C141.85 217.98 163.28 202.02 163.88 180.88C164.68 154.61 137.44 142.07 117.49 132.75L94.64 121.65L83.78 138.11L103.22 147.37C115.99 154.03 139.51 164.32 139.87 180.88C140.13 191.87 128.49 202.79 103.71 202.88L35.13 202.8L165.03 0H0Z" fill="currentColor"/>
<path d="M40.28 51.4C22.08 51.4 0.44 65.84 0.71 85.72C0.95 104.29 20.32 118.69 50.02 130.14L60.35 111.85C46.88 108.81 23.22 98.77 23.3 85.22C23.37 76.24 33.96 71.82 46.58 71.33L59.07 71.16C72.86 70.76 81.26 63.61 89.99 51.27L40.28 51.4Z" fill="currentColor"/>
</svg>
